<svg xmlns="http://www.w3.org/2000/svg" width="30.951" height="30.951" viewBox="0 0 30.951 30.951"><defs><style>.a{fill:#3e515a;}</style></defs><g transform="translate(-3.375 -3.375)"><path class="a" d="M23.931,22.249,20.01,18.328l3.921-3.921a1.189,1.189,0,0,0-1.681-1.681l-3.921,3.921-3.921-3.921a1.189,1.189,0,1,0-1.681,1.681l3.921,3.921-3.921,3.921a1.15,1.15,0,0,0,0,1.681,1.181,1.181,0,0,0,1.681,0l3.921-3.921,3.921,3.921a1.2,1.2,0,0,0,1.681,0A1.181,1.181,0,0,0,23.931,22.249Z" transform="translate(0.523 0.522)"/><path class="a" d="M18.851,5.458A13.387,13.387,0,1,1,9.379,9.379a13.3,13.3,0,0,1,9.471-3.921m0-2.083A15.476,15.476,0,1,0,34.326,18.851,15.473,15.473,0,0,0,18.851,3.375Z"/></g></svg>