<svg xmlns="http://www.w3.org/2000/svg" width="40.59" height="40.074" viewBox="0 0 40.59 40.074"><defs><style>.a{fill:#fff;}.b{fill:#6d9a63;}.c{fill:none;stroke:#fff;stroke-linecap:round;stroke-width:2px;}.d,.e{stroke:none;}.e{fill:#3e515a;}</style></defs><g transform="translate(-1779.73 -174.429)"><path class="a" d="M31.645,19.294a3.807,3.807,0,0,1,2.442-3.552,15.091,15.091,0,0,0-1.826-4.4,3.858,3.858,0,0,1-1.549.331,3.8,3.8,0,0,1-3.475-5.347A15.046,15.046,0,0,0,22.846,4.5a3.8,3.8,0,0,1-7.1,0,15.091,15.091,0,0,0-4.4,1.826,3.8,3.8,0,0,1-3.475,5.347,3.733,3.733,0,0,1-1.549-.331A15.425,15.425,0,0,0,4.5,15.749a3.806,3.806,0,0,1,.008,7.1,15.091,15.091,0,0,0,1.826,4.4,3.8,3.8,0,0,1,5.016,5.016,15.179,15.179,0,0,0,4.4,1.826,3.8,3.8,0,0,1,7.089,0,15.091,15.091,0,0,0,4.4-1.826,3.8,3.8,0,0,1,5.016-5.016,15.18,15.18,0,0,0,1.826-4.4A3.825,3.825,0,0,1,31.645,19.294ZM19.363,25.45a6.164,6.164,0,1,1,6.164-6.164A6.162,6.162,0,0,1,19.363,25.45Z" transform="translate(1775.23 169.929)"/><g class="b" transform="translate(1792.611 186.794)"><path class="d" d="M 13.85467147827148 25.70934104919434 C 10.68817138671875 25.70934104919434 7.711211681365967 24.47624206542969 5.472151279449463 22.23719215393066 C 3.233101367950439 19.99813079833984 2.000001430511475 17.02117156982422 2.000001430511475 13.85467147827148 C 2.000001430511475 10.68817138671875 3.233101367950439 7.711211681365967 5.472151279449463 5.472151279449463 C 7.711211681365967 3.233101367950439 10.68817138671875 2.000001430511475 13.85467147827148 2.000001430511475 C 17.02117156982422 2.000001430511475 19.99813079833984 3.233101367950439 22.23719215393066 5.472151279449463 C 24.47624206542969 7.711211681365967 25.70934104919434 10.68817138671875 25.70934104919434 13.85467147827148 C 25.70934104919434 17.02117156982422 24.47624206542969 19.99813079833984 22.23719215393066 22.23719215393066 C 19.99813079833984 24.47624206542969 17.02117156982422 25.70934104919434 13.85467147827148 25.70934104919434 Z"/><path class="e" d="M 13.85467147827148 4.000001907348633 C 8.420791625976563 4.000001907348633 4.000001907348633 8.420791625976563 4.000001907348633 13.85467147827148 C 4.000001907348633 19.28855133056641 8.420791625976563 23.70934104919434 13.85467147827148 23.70934104919434 C 19.28855133056641 23.70934104919434 23.70934104919434 19.28855133056641 23.70934104919434 13.85467147827148 C 23.70934104919434 8.420791625976563 19.28855133056641 4.000001907348633 13.85467147827148 4.000001907348633 M 13.85467147827148 1.9073486328125e-06 C 21.50639152526855 1.9073486328125e-06 27.70934104919434 6.202951431274414 27.70934104919434 13.85467147827148 C 27.70934104919434 21.50639152526855 21.50639152526855 27.70934104919434 13.85467147827148 27.70934104919434 C 6.202951431274414 27.70934104919434 1.9073486328125e-06 21.50639152526855 1.9073486328125e-06 13.85467147827148 C 1.9073486328125e-06 6.202951431274414 6.202951431274414 1.9073486328125e-06 13.85467147827148 1.9073486328125e-06 Z"/></g><path class="c" d="M0,0,5.411,5.048,2.735,8.7" transform="translate(1811.279 197.651) rotate(90)"/></g></svg>