<svg xmlns="http://www.w3.org/2000/svg" width="19.058" height="14.297" viewBox="0 0 19.058 14.297"><defs><style>.a{fill:#3e515a;}</style></defs><path class="a" d="M18.934,7.657a2.894,2.894,0,0,0-2.755-3.023c-2.062-.1-4.166-.134-6.314-.134H9.2c-2.144,0-4.251.037-6.314.134A2.9,2.9,0,0,0,.13,7.664C.037,8.99,0,10.315,0,11.64s.037,2.651.127,3.98a2.9,2.9,0,0,0,2.751,3.034c2.167.1,4.389.145,6.649.141s4.479-.037,6.649-.141A2.9,2.9,0,0,0,18.93,15.62c.089-1.329.13-2.654.127-3.983S19.024,8.986,18.934,7.657ZM7.706,15.293V7.977l5.4,3.656Z" transform="translate(0 -4.5)"/></svg>