<svg xmlns="http://www.w3.org/2000/svg" width="30.063" height="30.063" viewBox="0 0 30.063 30.063"><defs><style>.a{fill:#fff;stroke:#999;stroke-miterlimit:10;stroke-width:0.25px;}.b{fill:#ce202b;}.c{fill:#283374;}</style></defs><g transform="translate(0.125 0.125)"><path class="a" d="M725.366,400.927a14.923,14.923,0,0,1-.343,3.182,14.594,14.594,0,0,1-.488,1.73c-.1.288-.21.575-.329.858-.191.452-.4.895-.634,1.324a14.974,14.974,0,0,1-1.224,1.9c-.178.233-.356.452-.543.671a14.885,14.885,0,0,1-7.4,4.712c-.383.1-.781.2-1.178.269a14.625,14.625,0,0,1-2.771.26,14.431,14.431,0,0,1-2.406-.2,11.434,11.434,0,0,1-1.178-.242,14.857,14.857,0,0,1-7.642-4.666c-.187-.215-.37-.434-.543-.662a14.033,14.033,0,0,1-1.251-1.885,14.37,14.37,0,0,1-.726-1.484c-.119-.283-.228-.571-.329-.858a14.688,14.688,0,0,1-.489-1.73,14.989,14.989,0,0,1-.027-6.241,15.287,15.287,0,0,1,.484-1.767,14.656,14.656,0,0,1,.917-2.128,15.364,15.364,0,0,1,1.206-1.917c.169-.224.342-.448.529-.662a14.872,14.872,0,0,1,7.871-4.94c.388-.1.781-.173,1.178-.242a14.907,14.907,0,0,1,2.406-.191,14.591,14.591,0,0,1,2.771.26c.4.073.795.164,1.178.274a14.862,14.862,0,0,1,7.625,4.981c.183.219.356.443.52.676a14.02,14.02,0,0,1,1.178,1.927,14.877,14.877,0,0,1,.836,1.963,15.3,15.3,0,0,1,.484,1.767A14.986,14.986,0,0,1,725.366,400.927Z" transform="translate(-695.553 -386.021)"/><path class="b" d="M725.366,417.5a13.555,13.555,0,0,1-.343,3.03H695.9a13.6,13.6,0,0,1-.027-5.942h29.183A13.611,13.611,0,0,1,725.366,417.5Z" transform="translate(-695.553 -402.595)"/><path class="b" d="M730.5,386.281v29.292a14.627,14.627,0,0,1-2.771.26,14.431,14.431,0,0,1-2.406-.2V386.212a14.91,14.91,0,0,1,2.406-.191A14.592,14.592,0,0,1,730.5,386.281Z" transform="translate(-712.823 -386.021)"/><g transform="translate(18.855 0.534)"><path class="c" d="M748.083,392.274l-7.625,4.369v-9.35A14.861,14.861,0,0,1,748.083,392.274Z" transform="translate(-740.458 -387.293)"/><path class="b" d="M750.487,402.691l-4.584,2.68h-4.228l7.633-4.607A14.011,14.011,0,0,1,750.487,402.691Z" transform="translate(-741.165 -395.108)"/></g><g transform="translate(1.717 0.434)"><path class="c" d="M711.644,387.054V396.5l-7.871-4.511A14.872,14.872,0,0,1,711.644,387.054Z" transform="translate(-702.038 -387.054)"/><path class="b" d="M708.731,405.157h-4.223l-4.867-2.844a15.378,15.378,0,0,1,1.205-1.917Z" transform="translate(-699.641 -394.793)"/></g><g transform="translate(18.855 19.417)"><path class="c" d="M747.854,438.679a14.886,14.886,0,0,1-7.4,4.712v-8.953Z" transform="translate(-740.458 -433.525)"/><path class="b" d="M750.328,434.847a14.942,14.942,0,0,1-1.224,1.9l-7.428-4.483H745.9Z" transform="translate(-741.165 -432.263)"/></g><g transform="translate(1.886 19.417)"><path class="c" d="M711.959,434.438v9.044a14.857,14.857,0,0,1-7.642-4.666Z" transform="translate(-702.523 -433.525)"/><path class="b" d="M708.965,432.263l-7.67,4.629a14.034,14.034,0,0,1-1.251-1.885l4.7-2.744Z" transform="translate(-700.044 -432.263)"/></g></g></svg>