<svg xmlns="http://www.w3.org/2000/svg" width="29.799" height="30.313" viewBox="0 0 29.799 30.313"><defs><style>.a{fill:#fff;stroke:#dd0116;stroke-miterlimit:10;stroke-width:0.5px;}.b{fill:#dd0116;}</style></defs><g transform="translate(-5.75 7.25)"><g transform="translate(6 -7)"><path class="a" d="M724.178,638.08a15.063,15.063,0,0,1-.194,2.432.026.026,0,0,0,0,.017c-.013.078-.026.16-.039.242-.026.138-.056.28-.086.423a14.775,14.775,0,0,1-11.6,11.532c-.017,0-.035,0-.048.009l-.185.039-.16.026a14.346,14.346,0,0,1-2.333.19,14.645,14.645,0,0,1-2.273-.181c-.017,0-.035,0-.052-.009-.039,0-.078-.013-.116-.021-.091-.022-.186-.035-.276-.056A14.761,14.761,0,0,1,695.2,641.194a1.272,1.272,0,0,0-.039-.168c-.017-.086-.03-.168-.043-.254s-.03-.164-.039-.242a.026.026,0,0,0,0-.017,16.6,16.6,0,0,1-.181-1.678c-.009-.246-.013-.5-.013-.754,0-.289,0-.574.022-.863s.039-.569.078-.85c0-.03.009-.061.013-.1.026-.237.06-.47.1-.7.017-.112.035-.22.056-.332.056-.28.112-.552.181-.824a14.738,14.738,0,0,1,11.484-10.971c.09-.021.185-.035.276-.056a1.1,1.1,0,0,1,.116-.021c.017,0,.034,0,.052-.009a14.1,14.1,0,0,1,2.273-.181,14.339,14.339,0,0,1,2.333.19c.052,0,.108.013.16.021l.185.039c.013,0,.03,0,.048.009a14.763,14.763,0,0,1,11.471,10.98c.069.271.125.543.181.824.022.112.043.22.06.332.039.229.073.462.1.7A14.873,14.873,0,0,1,724.178,638.08Z" transform="translate(-694.879 -623.176)"/><path class="b" d="M724.178,655.72a15.062,15.062,0,0,1-.194,2.432H695.073a16.59,16.59,0,0,1-.181-1.678c-.009-.246-.013-.5-.013-.754,0-.289,0-.574.022-.862s.039-.57.078-.85c0-.03.009-.061.013-.1.026-.237.06-.47.1-.7h28.877c.039.229.073.462.1.7A14.872,14.872,0,0,1,724.178,655.72Z" transform="translate(-694.879 -640.816)"/><path class="b" d="M729.4,623.366V652.8a14.347,14.347,0,0,1-2.333.19,14.644,14.644,0,0,1-2.273-.181c-.017,0-.035,0-.052-.009V623.366c.017,0,.034,0,.052-.009a14.1,14.1,0,0,1,2.273-.181A14.341,14.341,0,0,1,729.4,623.366Z" transform="translate(-712.422 -623.176)"/><g transform="translate(18.891 4.224)"><path class="b" d="M747.556,640.565a3.37,3.37,0,0,1-.047.567l-.009.056h-6.787a.539.539,0,0,1-.01-.056,3.5,3.5,0,0,1-.044-.392c0-.057,0-.116,0-.174s0-.133,0-.2.01-.132.018-.2l0-.023c.009-.081.022-.16.037-.239s.026-.128.043-.19h6.687c.016.062.03.125.042.19s.029.158.038.239A3.429,3.429,0,0,1,747.556,640.565Z" transform="translate(-740.656 -637.115)"/><path class="b" d="M748.746,633.472v6.779l-.01,0-.044.009a3.441,3.441,0,0,1-.587.049,3.525,3.525,0,0,1-.535-.041l-.04-.007-.066-.012v-6.776c.022-.005.044-.008.066-.012l.04-.007a3.374,3.374,0,0,1,.535-.042,3.537,3.537,0,0,1,.587.05l.044.008Z" transform="translate(-744.655 -633.412)"/></g><g transform="translate(18.891 18.677)"><path class="b" d="M747.556,675.589a3.371,3.371,0,0,1-.047.567l-.009.056h-6.787a.55.55,0,0,1-.01-.056,3.507,3.507,0,0,1-.044-.392c0-.057,0-.116,0-.175s0-.133,0-.2.01-.132.018-.2l0-.023c.009-.081.022-.16.037-.239s.026-.128.043-.19h6.687c.016.062.03.125.042.19s.029.158.038.239A3.424,3.424,0,0,1,747.556,675.589Z" transform="translate(-740.656 -672.139)"/><path class="b" d="M748.746,668.5v6.779l-.01,0-.044.008a3.4,3.4,0,0,1-.587.05,3.509,3.509,0,0,1-.535-.041l-.04-.007-.066-.012V668.5c.022-.005.044-.008.066-.012l.04-.008a3.367,3.367,0,0,1,.535-.042,3.53,3.53,0,0,1,.587.05l.044.008Z" transform="translate(-744.655 -668.436)"/></g><g transform="translate(3.743 4.191)"><path class="b" d="M710.849,640.484a3.433,3.433,0,0,1-.047.567l-.01.056h-6.788c0-.019-.007-.037-.01-.056a3.493,3.493,0,0,1-.044-.392c0-.057,0-.116,0-.174s0-.133.005-.2.009-.132.018-.2l0-.023c.009-.081.021-.16.037-.239s.026-.128.043-.19h6.687c.017.062.03.126.043.19s.029.158.038.239A3.412,3.412,0,0,1,710.849,640.484Z" transform="translate(-703.949 -637.034)"/><path class="b" d="M712.039,633.392v6.779l-.01,0-.044.008a3.405,3.405,0,0,1-.587.05,3.447,3.447,0,0,1-.535-.042l-.04-.007-.065-.012v-6.776c.022-.005.044-.009.065-.013l.04-.007a3.374,3.374,0,0,1,.535-.043,3.531,3.531,0,0,1,.587.05l.044.009Z" transform="translate(-707.948 -633.331)"/></g><g transform="translate(3.743 18.644)"><path class="b" d="M710.849,675.508a3.435,3.435,0,0,1-.047.567l-.01.056h-6.788c0-.019-.007-.038-.01-.056a3.5,3.5,0,0,1-.044-.392c0-.057,0-.116,0-.174s0-.133.005-.2.009-.132.018-.2l0-.023c.009-.081.021-.16.037-.239s.026-.128.043-.19h6.687c.017.062.03.126.043.19s.029.158.038.239A3.415,3.415,0,0,1,710.849,675.508Z" transform="translate(-703.949 -672.058)"/><path class="b" d="M712.039,668.415v6.78l-.01,0-.044.008a3.405,3.405,0,0,1-.587.05,3.462,3.462,0,0,1-.535-.042l-.04-.007c-.022,0-.044-.008-.065-.013v-6.776c.022-.005.044-.009.065-.013l.04-.007a3.352,3.352,0,0,1,.535-.043,3.544,3.544,0,0,1,.587.05l.044.008Z" transform="translate(-707.948 -668.355)"/></g></g></g></svg>