<svg xmlns="http://www.w3.org/2000/svg" width="315.903" height="91.2" viewBox="0 0 315.903 91.2"><defs><style>.a{fill:#1c341f;}.b{fill:#fff;}.c{fill:#3e7931;}</style></defs><g transform="translate(-127.646 -375.345)"><rect class="a" width="70.506" height="57.473" transform="translate(127.646 375.345)"/><rect class="a" width="70.498" height="57.473" transform="translate(209.787 375.345)"/><rect class="a" width="70.495" height="57.473" transform="translate(290.925 375.345)"/><rect class="a" width="70.494" height="57.473" transform="translate(373.056 375.345)"/><path class="b" d="M159.877,391.084v11.96h.815c2.6,0,4.464-.582,5.637-1.75a8.847,8.847,0,0,0,2.222-5.162h1.161V411.5h-1.161a9.3,9.3,0,0,0-1.507-4.115,5.861,5.861,0,0,0-2.7-2.148,13.8,13.8,0,0,0-4.468-.553v8.252a8.478,8.478,0,0,0,.29,2.959,2.071,2.071,0,0,0,1.066.887,6.777,6.777,0,0,0,2.519.346H166.2a19.107,19.107,0,0,0,9.151-1.9,10.7,10.7,0,0,0,4.94-5.795H181.4l-1.823,9.329H144.392v-.752h1.339a7.561,7.561,0,0,0,2.849-.461,2.291,2.291,0,0,0,1.2-1.046,6.789,6.789,0,0,0,.324-2.749V394.4a11.441,11.441,0,0,0-.152-2.465,2.13,2.13,0,0,0-1.108-1.171,6.6,6.6,0,0,0-3.112-.612h-1.339V389.4h34.059v8.68h-1.165a9.166,9.166,0,0,0-2.438-4.568,9.938,9.938,0,0,0-4.444-2.045,33.976,33.976,0,0,0-6.274-.383Z"/><path class="b" d="M243.009,391.084v12.709c.665.029,1.169.046,1.513.046a8.9,8.9,0,0,0,5.657-1.572,5.82,5.82,0,0,0,1.991-4.872,5.623,5.623,0,0,0-1.991-4.792q-1.984-1.522-5.932-1.519Zm0,14.39v8.155a6.623,6.623,0,0,0,.41,3.019,2.673,2.673,0,0,0,1.443.994,13.073,13.073,0,0,0,3.808.375v.752H227.942v-.752a12.629,12.629,0,0,0,3.833-.383,2.751,2.751,0,0,0,1.412-.994,6.432,6.432,0,0,0,.413-3.011V394.542a6.546,6.546,0,0,0-.413-3.027,2.677,2.677,0,0,0-1.427-.991,13.292,13.292,0,0,0-3.818-.368V389.4h17.77q8.782,0,12.6,2.255,3.831,2.254,3.826,5.635a6.16,6.16,0,0,1-2.471,4.9,14.289,14.289,0,0,1-6.8,2.778A64.775,64.775,0,0,1,243.009,405.474Z"/><path class="b" d="M319.426,391.036v12.8h1.714a26.7,26.7,0,0,0,6.257-.549,6.217,6.217,0,0,0,3.272-1.979,6.61,6.61,0,0,0-1-8.679q-2.186-1.6-7.027-1.6Zm0,14.355v8.283a6.527,6.527,0,0,0,.413,2.993,2.686,2.686,0,0,0,1.431.975,13.062,13.062,0,0,0,3.813.375v.752H304.242v-.752a12.831,12.831,0,0,0,3.837-.38,2.894,2.894,0,0,0,1.421-.984,6.782,6.782,0,0,0,.4-2.979V394.485a6.775,6.775,0,0,0-.4-2.98,2.807,2.807,0,0,0-1.434-.981,13.318,13.318,0,0,0-3.824-.368V389.4h18.936a55.628,55.628,0,0,1,10.81.74,11.561,11.561,0,0,1,5.6,2.724,6.1,6.1,0,0,1,2.155,4.649,6.275,6.275,0,0,1-3.246,5.377,15.7,15.7,0,0,1-5.806,2.009l9.767,9.951a18.527,18.527,0,0,0,2.758,2.395,6.666,6.666,0,0,0,2.864.729v.8H335.253l-13.147-13.378Z"/><path class="b" d="M427.585,388.733v10.193h-1.169a10.854,10.854,0,0,0-4.9-6.153,16.463,16.463,0,0,0-15.138-.555,10.779,10.779,0,0,0-4.645,4.145,14.42,14.42,0,0,0-1.879,7.282,18.346,18.346,0,0,0,1.372,7.193,9.955,9.955,0,0,0,4.316,4.9,15.5,15.5,0,0,0,7.612,1.659,19.91,19.91,0,0,0,7.043-1.211,24.412,24.412,0,0,0,6.714-4.178v2.526a23.529,23.529,0,0,1-7.124,3.74,29.1,29.1,0,0,1-8.648,1.156,32.972,32.972,0,0,1-11.568-1.877,17.172,17.172,0,0,1-7.79-5.41,12.019,12.019,0,0,1-2.741-7.52,12.524,12.524,0,0,1,3.036-7.97,19.7,19.7,0,0,1,8.217-5.84,29.23,29.23,0,0,1,10.99-2.08,33.359,33.359,0,0,1,9.051,1.349,18.157,18.157,0,0,0,3.51.777,2.791,2.791,0,0,0,1.67-.508,2.475,2.475,0,0,0,.906-1.618Z"/><path class="c" d="M389.742,444.942a4.9,4.9,0,0,0-.174-1.6,1.237,1.237,0,0,0-.52-.656.924.924,0,0,0-.542-.131,1.041,1.041,0,0,0-.818.364,2.638,2.638,0,0,0-.568,1.776v.247Zm2.354.478h-4.931a3.05,3.05,0,0,0,.952,2.137,2.284,2.284,0,0,0,1.6.6,2.312,2.312,0,0,0,1.041-.236,3.688,3.688,0,0,0,1.017-.877l.322.17a4.485,4.485,0,0,1-1.607,1.581,4.415,4.415,0,0,1-2.054.464,3.8,3.8,0,0,1-3.013-1.159,3.63,3.63,0,0,1,.383-5.023,4.339,4.339,0,0,1,2.853-1,3.592,3.592,0,0,1,2.361.835A3.334,3.334,0,0,1,392.1,445.42Zm-9.359-6.434V442.4h-.371a3.573,3.573,0,0,0-1.571-2.063,4.811,4.811,0,0,0-2.6-.713,4.746,4.746,0,0,0-2.228.529,3.457,3.457,0,0,0-1.482,1.388,4.961,4.961,0,0,0-.606,2.449,6.524,6.524,0,0,0,.44,2.413,3.209,3.209,0,0,0,1.383,1.644,4.776,4.776,0,0,0,2.43.554,6.082,6.082,0,0,0,2.247-.4,8.059,8.059,0,0,0,2.153-1.4v.841a7.264,7.264,0,0,1-2.289,1.258,8.824,8.824,0,0,1-2.756.389,10.144,10.144,0,0,1-3.7-.626,5.474,5.474,0,0,1-2.488-1.822,4.171,4.171,0,0,1-.872-2.519,4.315,4.315,0,0,1,.967-2.674,6.361,6.361,0,0,1,2.627-1.968,9.126,9.126,0,0,1,3.515-.691,9.983,9.983,0,0,1,2.891.448,5.428,5.428,0,0,0,1.117.261.8.8,0,0,0,.826-.709Zm-24.608.223v3.942a5.333,5.333,0,0,1,1.358-.829,3.286,3.286,0,0,1,1.264-.244,2.748,2.748,0,0,1,1.435.357,1.8,1.8,0,0,1,.8.862,5.014,5.014,0,0,1,.192,1.645v2.65a1.566,1.566,0,0,0,.193.975,1.238,1.238,0,0,0,.779.241v.257H359.6v-.257a1.132,1.132,0,0,0,.721-.289,1.65,1.65,0,0,0,.161-.927v-3.027a3.823,3.823,0,0,0-.085-1.053.7.7,0,0,0-.288-.338.929.929,0,0,0-.456-.117,1.46,1.46,0,0,0-.748.2,2.794,2.794,0,0,0-.779.7v3.636a1.671,1.671,0,0,0,.147.914.976.976,0,0,0,.736.3v.257h-4.543v-.257a1.23,1.23,0,0,0,.8-.272,1.651,1.651,0,0,0,.164-.944v-6.916a1.616,1.616,0,0,0-.184-.967,1.274,1.274,0,0,0-.783-.245v-.255Zm-5.088,8.095.3.174a3.88,3.88,0,0,1-1.585,1.341,4.677,4.677,0,0,1-2.01.439,3.953,3.953,0,0,1-2.874-1.021,3.273,3.273,0,0,1-1.073-2.46,3.444,3.444,0,0,1,.975-2.435,4.261,4.261,0,0,1,3.246-1.264,4.072,4.072,0,0,1,2.219.526,1.487,1.487,0,0,1,.828,1.183.783.783,0,0,1-.331.655,1.38,1.38,0,0,1-.867.253,1.494,1.494,0,0,1-.943-.288,1.4,1.4,0,0,1-.454-1,1.044,1.044,0,0,0-.273-.65.858.858,0,0,0-.528-.176,1.036,1.036,0,0,0-.79.37,2.522,2.522,0,0,0-.489,1.7,4.224,4.224,0,0,0,.4,1.834,2.971,2.971,0,0,0,1.108,1.3,2.427,2.427,0,0,0,1.248.309,2.532,2.532,0,0,0,.894-.165A4.12,4.12,0,0,0,353.041,447.3Zm-11.963-5.032.007,1.551a5.549,5.549,0,0,1,1.553-1.4,2.782,2.782,0,0,1,1.287-.342,1.373,1.373,0,0,1,.86.244.851.851,0,0,1,.318.711.9.9,0,0,1-.312.754,1.074,1.074,0,0,1-.752.262,1.573,1.573,0,0,1-.87-.24c-.243-.17-.4-.259-.44-.284a.7.7,0,0,0-.215-.037.976.976,0,0,0-.534.162,1.55,1.55,0,0,0-.584.7,3.888,3.888,0,0,0-.3,1.554v1.975a1.182,1.182,0,0,0,.077.528.616.616,0,0,0,.338.289,2.361,2.361,0,0,0,.769.11v.257H337.4v-.257a1.268,1.268,0,0,0,.8-.241,1.814,1.814,0,0,0,.206-1.089v-3.765a2.061,2.061,0,0,0-.087-.751.573.573,0,0,0-.275-.308,1.873,1.873,0,0,0-.643-.13v-.252Zm-8.585,5.251v-2.269a5.325,5.325,0,0,0-1.731,1.112,1.109,1.109,0,0,0-.378.793.709.709,0,0,0,.322.572.981.981,0,0,0,.663.2A2.184,2.184,0,0,0,332.493,447.523Zm0,.53a5.534,5.534,0,0,1-2.949,1.1,2.107,2.107,0,0,1-1.284-.374,1.168,1.168,0,0,1-.513-.952,1.72,1.72,0,0,1,.894-1.395,17.772,17.772,0,0,1,3.852-1.657v-.683a2.77,2.77,0,0,0-.11-.967.926.926,0,0,0-.427-.345,1.557,1.557,0,0,0-.694-.15,2.278,2.278,0,0,0-1.034.21c-.163.084-.245.188-.245.306s.088.222.274.375a.836.836,0,0,1,.355.6.7.7,0,0,1-.352.605,1.516,1.516,0,0,1-.907.256,1.772,1.772,0,0,1-1.013-.278.79.79,0,0,1-.411-.646,1.314,1.314,0,0,1,.55-1,3.83,3.83,0,0,1,1.526-.726,7.9,7.9,0,0,1,2.037-.253,4.176,4.176,0,0,1,2.022.409,2.2,2.2,0,0,1,.971.889,4.888,4.888,0,0,1,.126,1.394V447.4a1.844,1.844,0,0,0,.054.586.321.321,0,0,0,.138.174.432.432,0,0,0,.229.054.715.715,0,0,0,.505-.257l.286.165a3.164,3.164,0,0,1-.984.789,2.756,2.756,0,0,1-1.169.236,2.32,2.32,0,0,1-1.2-.263A1.144,1.144,0,0,1,332.493,448.053Zm-8.441-3.111a5.3,5.3,0,0,0-.156-1.6,1.26,1.26,0,0,0-.534-.656.87.87,0,0,0-.534-.131,1.02,1.02,0,0,0-.814.364,2.62,2.62,0,0,0-.561,1.776v.247Zm2.366.478h-4.935a3.03,3.03,0,0,0,.957,2.137,2.275,2.275,0,0,0,1.594.6,2.316,2.316,0,0,0,1.049-.236,3.4,3.4,0,0,0,1-.877l.335.17a4.468,4.468,0,0,1-1.61,1.581,4.393,4.393,0,0,1-2.053.464,3.827,3.827,0,0,1-3.018-1.159,3.659,3.659,0,0,1,.395-5.023,4.313,4.313,0,0,1,2.839-1,3.6,3.6,0,0,1,2.371.835A3.355,3.355,0,0,1,326.418,445.42Zm-9.593-3.328.139,2.315h-.343a3.661,3.661,0,0,0-1.193-1.4,2.32,2.32,0,0,0-1.238-.383,1.1,1.1,0,0,0-.667.2.582.582,0,0,0-.281.456.529.529,0,0,0,.2.38,9.148,9.148,0,0,0,1.71,1.018,7.156,7.156,0,0,1,1.844,1.219,1.691,1.691,0,0,1,.439,1.129,1.977,1.977,0,0,1-.37,1.106,2.4,2.4,0,0,1-1.051.838,3.825,3.825,0,0,1-1.5.285,6.91,6.91,0,0,1-1.713-.3,1.543,1.543,0,0,0-.381-.082.622.622,0,0,0-.529.37h-.331l-.162-2.44h.339a3.135,3.135,0,0,0,1.181,1.428,2.626,2.626,0,0,0,1.414.482,1.207,1.207,0,0,0,.75-.221.617.617,0,0,0,.289-.516.8.8,0,0,0-.28-.6,7.64,7.64,0,0,0-1.29-.767,10.389,10.389,0,0,1-1.888-1.17,1.788,1.788,0,0,1-.627-1.316,1.847,1.847,0,0,1,.716-1.414,2.968,2.968,0,0,1,2.054-.631,3.689,3.689,0,0,1,1.4.27,1.238,1.238,0,0,0,.426.119.584.584,0,0,0,.28-.061,1.447,1.447,0,0,0,.325-.314Zm-9.136,2.85a5.045,5.045,0,0,0-.167-1.6,1.315,1.315,0,0,0-.519-.656.925.925,0,0,0-.543-.131,1.06,1.06,0,0,0-.823.364,2.677,2.677,0,0,0-.561,1.776v.247Zm2.355.478h-4.931a3.092,3.092,0,0,0,.947,2.137,2.438,2.438,0,0,0,2.647.363,3.609,3.609,0,0,0,1.019-.877l.318.17a4.424,4.424,0,0,1-1.607,1.581,4.372,4.372,0,0,1-2.046.464,3.814,3.814,0,0,1-3.023-1.159,3.639,3.639,0,0,1,.385-5.023,4.36,4.36,0,0,1,2.848-1,3.584,3.584,0,0,1,2.364.835A3.314,3.314,0,0,1,310.044,445.42Zm-17.24-5.665v4.294h.545a8.5,8.5,0,0,0,2.009-.175,2.118,2.118,0,0,0,.723-3.573,3.663,3.663,0,0,0-2.245-.546Zm0,4.821v2.777a2.212,2.212,0,0,0,.137,1.006.9.9,0,0,0,.454.334,4.123,4.123,0,0,0,1.222.115v.257h-6.66v-.257a4.094,4.094,0,0,0,1.224-.115.952.952,0,0,0,.446-.334,2.217,2.217,0,0,0,.138-1.006v-6.438a2.177,2.177,0,0,0-.138-1,.872.872,0,0,0-.446-.331,4.164,4.164,0,0,0-1.224-.117v-.255h6.055a17.059,17.059,0,0,1,3.451.249,3.671,3.671,0,0,1,1.79.909,2.1,2.1,0,0,1-.346,3.366,4.77,4.77,0,0,1-1.859.674l3.112,3.343a5.858,5.858,0,0,0,.882.8,2.028,2.028,0,0,0,.919.244v.271H297.87l-4.208-4.489Zm-15.171,4.782-2.9-5.053a6.024,6.024,0,0,0-.971-1.414,1.625,1.625,0,0,0-.737-.367v-.252h4.769v.252a1.345,1.345,0,0,0-.661.142.341.341,0,0,0-.188.3,2.926,2.926,0,0,0,.471,1.1l1.541,2.681L280,444.681a4.172,4.172,0,0,0,.562-1.549.518.518,0,0,0-.229-.435,1.662,1.662,0,0,0-.821-.173v-.252h2.967v.252a1.214,1.214,0,0,0-.718.271,5.575,5.575,0,0,0-.925,1.51l-2.561,5.042a9.745,9.745,0,0,1-1.434,2.32,2.355,2.355,0,0,1-1.657.613,2.237,2.237,0,0,1-1.292-.348,1.021,1.021,0,0,1-.5-.828.852.852,0,0,1,.346-.7,1.278,1.278,0,0,1,.836-.276,1.208,1.208,0,0,1,.786.233.934.934,0,0,1,.3.726.671.671,0,0,0,.085.356.292.292,0,0,0,.226.077.762.762,0,0,0,.487-.215,4.229,4.229,0,0,0,.9-1.392ZM272.09,447.3l.3.174a3.835,3.835,0,0,1-1.587,1.341,4.673,4.673,0,0,1-2.014.439,3.965,3.965,0,0,1-2.87-1.021,3.267,3.267,0,0,1-1.078-2.46,3.457,3.457,0,0,1,.98-2.435,4.263,4.263,0,0,1,3.255-1.264,4.058,4.058,0,0,1,2.212.526,1.472,1.472,0,0,1,.822,1.183.767.767,0,0,1-.327.655,1.409,1.409,0,0,1-.875.253,1.461,1.461,0,0,1-.929-.288,1.392,1.392,0,0,1-.458-1,1,1,0,0,0-.283-.65.8.8,0,0,0-.514-.176,1.016,1.016,0,0,0-.79.37,2.516,2.516,0,0,0-.5,1.7,4.44,4.44,0,0,0,.406,1.834,2.961,2.961,0,0,0,1.106,1.3,2.443,2.443,0,0,0,1.253.309,2.57,2.57,0,0,0,.9-.165A4.026,4.026,0,0,0,272.09,447.3Zm-9.27-5.032v5.381a1.307,1.307,0,0,0,.228.928,1.418,1.418,0,0,0,.877.227v.257h-4.893v-.257a1.367,1.367,0,0,0,.9-.258c.139-.113.209-.415.209-.9v-3.971a1.336,1.336,0,0,0-.229-.933,1.519,1.519,0,0,0-.88-.225v-.252Zm-1.345-3.286a1.717,1.717,0,0,1,1.055.327.941.941,0,0,1,0,1.586,1.722,1.722,0,0,1-1.055.333,1.69,1.69,0,0,1-1.054-.333.949.949,0,0,1,0-1.586A1.718,1.718,0,0,1,261.475,438.986Zm-4.1.223v8.444a1.309,1.309,0,0,0,.231.928,1.423,1.423,0,0,0,.872.227v.257h-4.89v-.257a1.34,1.34,0,0,0,.9-.258c.13-.113.2-.415.2-.9v-7.037a1.3,1.3,0,0,0-.229-.928,1.4,1.4,0,0,0-.871-.224v-.255Zm-9.067,3.374a1.255,1.255,0,0,0-.826.278,1.663,1.663,0,0,0-.465,1.1,17.551,17.551,0,0,0-.1,2.29,8.148,8.148,0,0,0,.126,1.448,1.245,1.245,0,0,0,.458.786,1.2,1.2,0,0,0,.772.265,1.339,1.339,0,0,0,.722-.176,1.167,1.167,0,0,0,.492-.693,12.409,12.409,0,0,0,.19-2.784,5.387,5.387,0,0,0-.173-1.688,1.3,1.3,0,0,0-.539-.676A1.162,1.162,0,0,0,248.31,442.583Zm-.038-.505a5.13,5.13,0,0,1,2.171.46,3.354,3.354,0,0,1,1.528,1.293,3.472,3.472,0,0,1,.515,1.838,3.281,3.281,0,0,1-.961,2.415,5.037,5.037,0,0,1-6.34.1A3.387,3.387,0,0,1,244.1,445.7a3.424,3.424,0,0,1,1.113-2.546A4.2,4.2,0,0,1,248.272,442.078Zm-11.6-2.3v4.266c.212.009.374.009.478.009a2.738,2.738,0,0,0,1.808-.524,2.01,2.01,0,0,0,.645-1.639,1.928,1.928,0,0,0-.645-1.6,2.992,2.992,0,0,0-1.891-.508Zm0,4.83v2.739a2.409,2.409,0,0,0,.128,1.016.986.986,0,0,0,.46.334,4.157,4.157,0,0,0,1.219.115v.257h-6.624v-.257a3.572,3.572,0,0,0,1.224-.129.99.99,0,0,0,.46-.32,2.491,2.491,0,0,0,.129-1.016v-6.406a2.5,2.5,0,0,0-.129-1.021.974.974,0,0,0-.46-.335,4.137,4.137,0,0,0-1.224-.117v-.255h5.683a8.072,8.072,0,0,1,4.026.754,2.206,2.206,0,0,1,1.223,1.891A2.128,2.128,0,0,1,242,443.5a4.451,4.451,0,0,1-2.169.93A20.188,20.188,0,0,1,236.675,444.6Zm-10.966,2.7.292.174a3.794,3.794,0,0,1-1.581,1.341,4.679,4.679,0,0,1-2.009.439,3.96,3.96,0,0,1-2.872-1.021,3.249,3.249,0,0,1-1.078-2.46,3.453,3.453,0,0,1,.971-2.435,4.29,4.29,0,0,1,3.26-1.264,4.067,4.067,0,0,1,2.217.526,1.476,1.476,0,0,1,.823,1.183.8.8,0,0,1-.329.655,1.4,1.4,0,0,1-.875.253,1.49,1.49,0,0,1-.936-.288,1.382,1.382,0,0,1-.453-1,.972.972,0,0,0-.287-.65.8.8,0,0,0-.51-.176,1.021,1.021,0,0,0-.791.37,2.48,2.48,0,0,0-.5,1.7,4.449,4.449,0,0,0,.4,1.834,2.988,2.988,0,0,0,1.114,1.3,2.437,2.437,0,0,0,1.25.309,2.547,2.547,0,0,0,.89-.165A3.962,3.962,0,0,0,225.709,447.3Zm-9.267-5.032v5.381c0,.482.068.8.219.928a1.414,1.414,0,0,0,.874.227v.257h-4.893v-.257a1.348,1.348,0,0,0,.9-.258c.138-.113.2-.415.2-.9v-3.971a1.29,1.29,0,0,0-.229-.933,1.469,1.469,0,0,0-.873-.225v-.252Zm-1.353-3.286a1.677,1.677,0,0,1,1.047.327.93.93,0,0,1,0,1.586,1.819,1.819,0,0,1-2.1,0,.938.938,0,0,1,0-1.586A1.7,1.7,0,0,1,215.089,438.986Zm-14.8,3.286v.9a5.08,5.08,0,0,1,1.367-.848,3.736,3.736,0,0,1,1.378-.244,3.1,3.1,0,0,1,1.446.3,2.087,2.087,0,0,1,.9.931,5.453,5.453,0,0,1,1.481-.945,3.9,3.9,0,0,1,1.481-.289,2.927,2.927,0,0,1,1.477.318,1.784,1.784,0,0,1,.77.826,4.32,4.32,0,0,1,.208,1.586v2.784a1.568,1.568,0,0,0,.2.973,1.241,1.241,0,0,0,.772.243v.257h-4.638v-.257a1.154,1.154,0,0,0,.809-.316,1.5,1.5,0,0,0,.178-.9v-2.919a3.648,3.648,0,0,0-.1-1.157.73.73,0,0,0-.3-.369.9.9,0,0,0-.473-.12,1.759,1.759,0,0,0-.846.232,3.428,3.428,0,0,0-.847.684v3.649a1.683,1.683,0,0,0,.159.927,1.126,1.126,0,0,0,.841.289v.257H201.9v-.257a1.129,1.129,0,0,0,.582-.137.655.655,0,0,0,.289-.3,2.557,2.557,0,0,0,.073-.779v-2.925a4.227,4.227,0,0,0-.094-1.163.779.779,0,0,0-.332-.363.927.927,0,0,0-.473-.128,1.545,1.545,0,0,0-.7.157,3.4,3.4,0,0,0-.959.773v3.649a1.584,1.584,0,0,0,.189.949,1.077,1.077,0,0,0,.78.267v.257H196.63v-.257a1.269,1.269,0,0,0,.8-.267,1.633,1.633,0,0,0,.163-.949v-3.846c0-.518-.056-.855-.189-.971a1.243,1.243,0,0,0-.775-.251v-.252Zm-9.265.311a1.274,1.274,0,0,0-.836.278,1.688,1.688,0,0,0-.463,1.1,19.029,19.029,0,0,0-.1,2.29,7.162,7.162,0,0,0,.127,1.448,1.269,1.269,0,0,0,.447.786,1.246,1.246,0,0,0,.786.265,1.322,1.322,0,0,0,.718-.176,1.152,1.152,0,0,0,.493-.693,12.412,12.412,0,0,0,.193-2.784,5.3,5.3,0,0,0-.18-1.688,1.285,1.285,0,0,0-.533-.676A1.154,1.154,0,0,0,191.02,442.583Zm-.044-.505a5.124,5.124,0,0,1,2.171.46,3.375,3.375,0,0,1,1.528,1.293,3.485,3.485,0,0,1,.519,1.838,3.293,3.293,0,0,1-.97,2.415,4.318,4.318,0,0,1-3.22,1.174,4.261,4.261,0,0,1-3.113-1.073A3.367,3.367,0,0,1,186.8,445.7a3.429,3.429,0,0,1,1.125-2.546A4.178,4.178,0,0,1,190.976,442.078Zm-11.484.194v.875a5.169,5.169,0,0,1,1.32-.813,3.476,3.476,0,0,1,1.359-.256,2.607,2.607,0,0,1,1.444.367,1.7,1.7,0,0,1,.765.91,5.4,5.4,0,0,1,.154,1.587v2.65a1.568,1.568,0,0,0,.191.975,1.218,1.218,0,0,0,.776.241v.257h-4.547v-.257a1,1,0,0,0,.734-.316,1.65,1.65,0,0,0,.155-.9v-3.023a4.263,4.263,0,0,0-.079-1.053.771.771,0,0,0-.3-.342.914.914,0,0,0-.455-.117,2,2,0,0,0-1.519.877v3.658a1.688,1.688,0,0,0,.173.973,1.1,1.1,0,0,0,.7.243v.257h-4.535v-.257a1.271,1.271,0,0,0,.8-.267,1.636,1.636,0,0,0,.162-.949v-3.846a1.586,1.586,0,0,0-.182-.971,1.3,1.3,0,0,0-.781-.251v-.252Zm-9.23.311a1.315,1.315,0,0,0-.844.278,1.663,1.663,0,0,0-.45,1.1,16.49,16.49,0,0,0-.116,2.29,8.038,8.038,0,0,0,.133,1.448,1.324,1.324,0,0,0,.449.786,1.254,1.254,0,0,0,.791.265,1.335,1.335,0,0,0,.713-.176,1.178,1.178,0,0,0,.494-.693,12.711,12.711,0,0,0,.194-2.784,5.444,5.444,0,0,0-.181-1.688,1.29,1.29,0,0,0-.546-.676A1.117,1.117,0,0,0,170.262,442.583Zm-.047-.505a5.025,5.025,0,0,1,2.164.46,3.351,3.351,0,0,1,1.54,1.293,3.418,3.418,0,0,1,.514,1.838,3.282,3.282,0,0,1-.967,2.415,4.334,4.334,0,0,1-3.223,1.174,4.275,4.275,0,0,1-3.109-1.073,3.389,3.389,0,0,1-1.089-2.483,3.427,3.427,0,0,1,1.112-2.546A4.2,4.2,0,0,1,170.215,442.078Zm-5.648,5.226.291.174a3.84,3.84,0,0,1-1.57,1.341,4.774,4.774,0,0,1-2.02.439,3.951,3.951,0,0,1-2.868-1.021,3.249,3.249,0,0,1-1.081-2.46,3.441,3.441,0,0,1,.989-2.435,4.223,4.223,0,0,1,3.243-1.264,4.093,4.093,0,0,1,2.219.526,1.47,1.47,0,0,1,.827,1.183.78.78,0,0,1-.333.655,1.4,1.4,0,0,1-.869.253,1.509,1.509,0,0,1-.94-.288,1.428,1.428,0,0,1-.46-1,.974.974,0,0,0-.276-.65.809.809,0,0,0-.509-.176,1.026,1.026,0,0,0-.8.37,2.511,2.511,0,0,0-.495,1.7,4.227,4.227,0,0,0,.4,1.834,3,3,0,0,0,1.1,1.3,2.465,2.465,0,0,0,1.252.309,2.507,2.507,0,0,0,.9-.165A4.03,4.03,0,0,0,164.567,447.3Zm-15.739-7.53v4.013h.261a2.406,2.406,0,0,0,1.8-.588,3.061,3.061,0,0,0,.705-1.736h.375v5.161H151.6a3.022,3.022,0,0,0-.485-1.378,1.9,1.9,0,0,0-.86-.725,4.308,4.308,0,0,0-1.425-.178v2.765a3.07,3.07,0,0,0,.092.991.74.74,0,0,0,.341.3,2.152,2.152,0,0,0,.8.116h.782a5.843,5.843,0,0,0,2.926-.638,3.511,3.511,0,0,0,1.573-1.947h.362l-.583,3.131H143.879v-.257h.428a2.183,2.183,0,0,0,.9-.148.779.779,0,0,0,.392-.353,2.42,2.42,0,0,0,.1-.923v-6.5a3.819,3.819,0,0,0-.053-.819.733.733,0,0,0-.353-.4,2,2,0,0,0-.994-.2h-.428v-.255h10.89v2.912H154.4a3.216,3.216,0,0,0-.79-1.532,3.1,3.1,0,0,0-1.418-.687,10.215,10.215,0,0,0-2-.128Z"/><path class="c" d="M423.128,442.272v1.551a5.711,5.711,0,0,1,1.561-1.4,2.8,2.8,0,0,1,1.29-.342,1.371,1.371,0,0,1,.857.244.869.869,0,0,1,.319.711.911.911,0,0,1-.313.754,1.092,1.092,0,0,1-.751.262,1.543,1.543,0,0,1-.866-.24c-.247-.17-.4-.259-.438-.284a.74.74,0,0,0-.224-.037.9.9,0,0,0-.521.162,1.459,1.459,0,0,0-.588.7,3.806,3.806,0,0,0-.307,1.554v1.975a1.3,1.3,0,0,0,.073.528.63.63,0,0,0,.333.289,2.464,2.464,0,0,0,.779.11v.257h-4.878v-.257a1.28,1.28,0,0,0,.8-.241,1.776,1.776,0,0,0,.206-1.089v-3.765a2.195,2.195,0,0,0-.08-.751.707.707,0,0,0-.271-.308,1.985,1.985,0,0,0-.652-.13v-.252Zm-7.193,2.67a5.075,5.075,0,0,0-.167-1.6,1.251,1.251,0,0,0-.526-.656.9.9,0,0,0-.537-.131,1.046,1.046,0,0,0-.814.364,2.637,2.637,0,0,0-.567,1.776v.247Zm2.369.478h-4.94a3.03,3.03,0,0,0,.952,2.137,2.421,2.421,0,0,0,2.637.363,3.47,3.47,0,0,0,1.015-.877l.336.17a4.613,4.613,0,0,1-1.619,1.581,4.4,4.4,0,0,1-2.046.464,3.819,3.819,0,0,1-3.022-1.159,3.4,3.4,0,0,1-.83-2.322,3.356,3.356,0,0,1,1.215-2.7,4.349,4.349,0,0,1,2.847-1,3.63,3.63,0,0,1,2.377.835A3.367,3.367,0,0,1,418.3,445.42Zm-10.6-5.646v2.5h2.118v.714H407.7v4.189a2.222,2.222,0,0,0,.076.759.552.552,0,0,0,.251.281.579.579,0,0,0,.335.105,1.514,1.514,0,0,0,1.167-.711l.289.157a2.653,2.653,0,0,1-2.521,1.382,2.68,2.68,0,0,1-1.443-.354,1.644,1.644,0,0,1-.748-.8,5.125,5.125,0,0,1-.1-1.342v-3.667h-1.173v-.262a11.934,11.934,0,0,0,2.063-1.357,8.2,8.2,0,0,0,1.485-1.593Zm-10.818,2.5v.875a5.324,5.324,0,0,1,1.328-.813,3.486,3.486,0,0,1,1.354-.256,2.594,2.594,0,0,1,1.45.367,1.721,1.721,0,0,1,.771.91,5.583,5.583,0,0,1,.15,1.587v2.65a1.571,1.571,0,0,0,.193.975,1.191,1.191,0,0,0,.772.241v.257h-4.546v-.257a1,1,0,0,0,.741-.316,1.663,1.663,0,0,0,.147-.9v-3.023a3.806,3.806,0,0,0-.084-1.053.732.732,0,0,0-.291-.342.918.918,0,0,0-.454-.117,2.035,2.035,0,0,0-1.531.877v3.658a1.532,1.532,0,0,0,.195.973,1.075,1.075,0,0,0,.7.243v.257h-4.542v-.257a1.285,1.285,0,0,0,.8-.267,1.683,1.683,0,0,0,.158-.949v-3.846a1.553,1.553,0,0,0-.187-.971,1.279,1.279,0,0,0-.775-.251v-.252Z"/><path class="c" d="M335.385,459.322v5.011a1.254,1.254,0,0,0,.174.657.622.622,0,0,0,.6.3h7.767v1.139h-7.8a1.633,1.633,0,0,1-.974-.3,2.06,2.06,0,0,1-.679-.784,2.309,2.309,0,0,1-.242-1.022l.024-5.173a1.949,1.949,0,0,1,.555-1.412,1.853,1.853,0,0,1,1.352-.566h.937a1.063,1.063,0,0,1,.48.123,1.013,1.013,0,0,1,.389.313,1.056,1.056,0,0,1,.2.4.973.973,0,0,1,.363-.568,1.042,1.042,0,0,1,.674-.264h.88a1.066,1.066,0,0,1,.48.123,1.028,1.028,0,0,1,.382.313,1.055,1.055,0,0,1,.188.4,1.074,1.074,0,0,1,.378-.576,1.011,1.011,0,0,1,.675-.256h.99a1.708,1.708,0,0,1,.96.278,2.019,2.019,0,0,1,.652.71,1.636,1.636,0,0,1,.245.85v3.872h-1.113V459.4a1.345,1.345,0,0,0-.225-.8,1.107,1.107,0,0,0-.876-.285h-.274a.794.794,0,0,0-.653.27,1.111,1.111,0,0,0-.22.741v2.446H340.56v-2.446a1.516,1.516,0,0,0-.153-.741.686.686,0,0,0-.642-.27h-.252a.672.672,0,0,0-.605.3,1.311,1.311,0,0,0-.186.709v2.446h-1.113v-2.446a1.506,1.506,0,0,0-.149-.737c-.1-.188-.315-.274-.661-.274h-.268a1.111,1.111,0,0,0-.852.319.936.936,0,0,0-.294.692m-4.554.037a1.038,1.038,0,0,0-.3-.791,1.327,1.327,0,0,0-.955-.294h-.337a1.594,1.594,0,0,0-.878.246,1.03,1.03,0,0,0-.381.925v.808h-1.11v-.87a2.4,2.4,0,0,1,.179-.967,1.911,1.911,0,0,1,.463-.7,2.259,2.259,0,0,1,.649-.418,2.105,2.105,0,0,1,.739-.138h1.062a1.847,1.847,0,0,1,.848.2,2.029,2.029,0,0,1,.643.522,2.674,2.674,0,0,1,.4.743,2.452,2.452,0,0,1,.127.819v.756a1,1,0,0,1-.269.689,3.692,3.692,0,0,1-.805.622,1.252,1.252,0,0,1,.764.4,1.145,1.145,0,0,1,.31.818v1.542a2.483,2.483,0,0,1-.269,1.212,1.9,1.9,0,0,1-.732.785,1.93,1.93,0,0,1-1.02.278h-1.062a1.88,1.88,0,0,1-1.008-.3,2.062,2.062,0,0,1-.748-.823,2.472,2.472,0,0,1-.274-1.154v-1.352h1.11v1.364a1.251,1.251,0,0,0,.149.691.675.675,0,0,0,.411.339,2.083,2.083,0,0,0,.717.1h.329a1.471,1.471,0,0,0,.984-.259,1.117,1.117,0,0,0,.279-.867v-1.364a.716.716,0,0,0-.271-.617,1.284,1.284,0,0,0-.795-.212v-1.11a1.2,1.2,0,0,0,.524-.116.832.832,0,0,0,.386-.31.691.691,0,0,0,.143-.442Zm-7.8.561a1.537,1.537,0,0,0,.808-.187.629.629,0,0,0,.309-.577V457.14h1.108V459.2a1.247,1.247,0,0,1-.292.795,1.332,1.332,0,0,1-.771.473,1.224,1.224,0,0,1,.566.25,1.308,1.308,0,0,1,.5,1.034v2.522a2.382,2.382,0,0,1-.568,1.593,1.845,1.845,0,0,1-1.465.674h-1.117a1.869,1.869,0,0,1-1.145-.341,2.115,2.115,0,0,1-.676-.863,2.6,2.6,0,0,1-.225-1.063v-1.367h1.114v1.378c0,.762.439,1.138,1.323,1.138h.368c.855,0,1.283-.376,1.283-1.145v-2.394a.772.772,0,0,0-.309-.6,1.227,1.227,0,0,0-.808-.257Zm-10.077,3.34a2.175,2.175,0,0,1,.288.5,1.273,1.273,0,0,1,.114.515,2.712,2.712,0,0,1-.236,1.17,1.867,1.867,0,0,1-.7.8,1.976,1.976,0,0,1-1.089.294h-1.061a2.172,2.172,0,0,1-1.06-.243,1.739,1.739,0,0,1-.72-.753,2.941,2.941,0,0,1-.248-1.271v-7.126h1.109v7.137a1.157,1.157,0,0,0,.3.824.942.942,0,0,0,.722.308h.863a.919.919,0,0,0,.752-.308,1.219,1.219,0,0,0,.26-.824.733.733,0,0,0-.086-.346,3.277,3.277,0,0,0-.286-.4,2.624,2.624,0,0,1-.393-.724,2.468,2.468,0,0,1-.14-.7v-1.178h1.115v.86a2.006,2.006,0,0,0,.127.788A3.212,3.212,0,0,0,312.954,463.26Zm-8.876-6.12a1.879,1.879,0,0,1,1.463.623,2.356,2.356,0,0,1,.568,1.654v7.015H305v-7.01a1.034,1.034,0,0,0-.35-.911,1.805,1.805,0,0,0-.959-.237h-.311a1.338,1.338,0,0,0-.943.307,1.083,1.083,0,0,0-.332.841v7.01h-1.114v-7.015a2.322,2.322,0,0,1,.582-1.654,1.9,1.9,0,0,1,1.455-.623Zm-7.395,2.78a1.55,1.55,0,0,0,.8-.187.632.632,0,0,0,.3-.577V457.14H298.9V459.2a1.261,1.261,0,0,1-.3.795,1.352,1.352,0,0,1-.766.473,1.216,1.216,0,0,1,.565.25,1.392,1.392,0,0,1,.5,1.034v2.522a2.393,2.393,0,0,1-.569,1.593,1.849,1.849,0,0,1-1.465.674h-1.129a1.85,1.85,0,0,1-1.134-.341,2.219,2.219,0,0,1-.679-.863,2.669,2.669,0,0,1-.226-1.063v-1.367h1.117v1.378c0,.762.44,1.138,1.332,1.138h.358c.858,0,1.281-.376,1.281-1.145v-2.394a.777.777,0,0,0-.3-.6,1.237,1.237,0,0,0-.8-.257Zm-6.759-2.78a1.914,1.914,0,0,1,1.459.623,2.412,2.412,0,0,1,.559,1.654v7.015h-1.108v-7.01a1.017,1.017,0,0,0-.361-.911,1.744,1.744,0,0,0-.947-.237h-.318a1.341,1.341,0,0,0-.941.307,1.08,1.08,0,0,0-.332.841v7.01h-1.112v-7.015a2.334,2.334,0,0,1,.58-1.654,1.9,1.9,0,0,1,1.448-.623Zm-9.617,5.4h-1.159v-.828a1.263,1.263,0,0,1,.107-.528,1.158,1.158,0,0,1,.318-.436.759.759,0,0,1,.453-.2l-.046-.052a1.979,1.979,0,0,1-1-.413,1.115,1.115,0,0,1-.424-.9l.016-.763a1.038,1.038,0,0,1,.243-.572,1.856,1.856,0,0,1,.613-.5,1.487,1.487,0,0,1,.717-.2h.873a1.549,1.549,0,0,1,.806.209,1.763,1.763,0,0,1,.577.513.973.973,0,0,1,.212.542v.76a1.1,1.1,0,0,1-.184.648,1.306,1.306,0,0,1-.417.408c-.148.093-.237.14-.237.126l.079.019a3.079,3.079,0,0,1,2.49,1.588,2.791,2.791,0,0,1,.352,1.226l.01.255a3.862,3.862,0,0,1-.307,1.489,2.577,2.577,0,0,1-2.492,1.61h-2.531a2.363,2.363,0,0,1-1.443-.464,3.1,3.1,0,0,1-.984-1.173,3.4,3.4,0,0,1-.355-1.462v-3.088h1.111v2.46c0,1.734.887,2.6,2.674,2.6h.625a6.045,6.045,0,0,0,1.5-.144,1.241,1.241,0,0,0,.8-.581,2.711,2.711,0,0,0,.263-1.346V463.2a1.461,1.461,0,0,0-.19-.722,2.257,2.257,0,0,0-.522-.632,2.888,2.888,0,0,0-.825-.453,3.117,3.117,0,0,0-1.013-.161.992.992,0,0,0-.516.161.611.611,0,0,0-.2.53Zm-.613-3.349a.588.588,0,0,0,.227.515.888.888,0,0,0,.489.159h.356a.886.886,0,0,0,.537-.142.633.633,0,0,0,.2-.532v-.428a.885.885,0,0,0-.124-.493c-.087-.114-.3-.168-.614-.168h-.356a.584.584,0,0,0-.716.661Zm-7.247-2.055a1.883,1.883,0,0,1,1.457.623,2.382,2.382,0,0,1,.574,1.654v7.015h-1.111v-7.01a1,1,0,0,0-.371-.911,1.74,1.74,0,0,0-.949-.237h-.307a1.324,1.324,0,0,0-.939.307,1.079,1.079,0,0,0-.336.841v7.01h-1.111v-7.015a2.356,2.356,0,0,1,.57-1.654,1.932,1.932,0,0,1,1.467-.623Zm-14.834,2.182v5.011a1.248,1.248,0,0,0,.177.657.63.63,0,0,0,.6.3h7.781v1.139h-7.811a1.649,1.649,0,0,1-.98-.3,2.151,2.151,0,0,1-.676-.784,2.306,2.306,0,0,1-.239-1.022l.022-5.173a1.952,1.952,0,0,1,.553-1.412,1.852,1.852,0,0,1,1.35-.566h.939a1.137,1.137,0,0,1,.493.123,1.03,1.03,0,0,1,.385.313,1.118,1.118,0,0,1,.193.4.932.932,0,0,1,.366-.568,1.028,1.028,0,0,1,.681-.264h.867a1.069,1.069,0,0,1,.48.123,1.027,1.027,0,0,1,.384.313.345.345,0,1,0,.561-.18,1.032,1.032,0,0,1,.678-.256h1a1.659,1.659,0,0,1,.944.278,2.07,2.07,0,0,1,.663.71,1.766,1.766,0,0,1,.237.85v3.872h-1.107V459.4a1.255,1.255,0,0,0-.229-.8,1.08,1.08,0,0,0-.867-.285h-.28a.773.773,0,0,0-.645.27,1.147,1.147,0,0,0-.23.741v2.446h-1.11v-2.446a1.472,1.472,0,0,0-.153-.741.671.671,0,0,0-.631-.27h-.263a.656.656,0,0,0-.593.3,1.259,1.259,0,0,0-.2.709v2.446h-1.117v-2.446a1.535,1.535,0,0,0-.142-.737c-.1-.188-.321-.274-.665-.274h-.263a1.122,1.122,0,0,0-.856.319A.979.979,0,0,0,257.613,459.322Zm-7.992.1a1.634,1.634,0,0,0-.178-.849.738.738,0,0,0-.7-.294h-.3a1.3,1.3,0,0,0-.942.307,1.05,1.05,0,0,0-.332.841v7.01h-1.12v-7.015a2.275,2.275,0,0,1,.606-1.647,1.9,1.9,0,0,1,1.42-.63l.662.012a1.489,1.489,0,0,1,.98.3,1.628,1.628,0,0,1,.439.584,1.723,1.723,0,0,1,.462-.588,1.546,1.546,0,0,1,1.031-.3l.632-.012a1.893,1.893,0,0,1,1.485.615,2.418,2.418,0,0,1,.538,1.662v7.015h-1.1v-7.01a1.064,1.064,0,0,0-.339-.841,1.306,1.306,0,0,0-.943-.307h-.3a.747.747,0,0,0-.69.294,1.547,1.547,0,0,0-.193.849v2.849h-1.11Zm-6.763.076a.3.3,0,0,0-.161-.27,4.59,4.59,0,0,0-.446-.247l-.833-.465a3.621,3.621,0,0,1-.564-.377.475.475,0,0,1-.215-.371v-.623h1.131v.38a.3.3,0,0,0,.053.145.991.991,0,0,0,.173.141c.084.051.145.091.2.119a.486.486,0,0,1,.135.062l.965.49a1.394,1.394,0,0,1,.517.4.78.78,0,0,1,.178.478v.894a1.035,1.035,0,0,1-.133.538,1.657,1.657,0,0,1-.361.379,6.16,6.16,0,0,1-.595.389,1.251,1.251,0,0,1,.806.436,1.3,1.3,0,0,1,.269.789V464.5a1.879,1.879,0,0,1-.28.951,2.333,2.333,0,0,1-.788.764,1.93,1.93,0,0,1-1.034.3h-.82a1.979,1.979,0,0,1-1.165-.336,2.043,2.043,0,0,1-.748-.906,3.216,3.216,0,0,1-.252-1.28v-1.084h1.114v1.35a.988.988,0,0,0,.359.91,1.985,1.985,0,0,0,.936.211h.274a1.315,1.315,0,0,0,.964-.317,1.082,1.082,0,0,0,.319-.783v-1.31a.72.72,0,0,0-.125-.39,1.012,1.012,0,0,0-.379-.341,1.287,1.287,0,0,0-.584-.126V461a1.492,1.492,0,0,0,.694-.2.615.615,0,0,0,.394-.553ZM229.93,457.14a1.915,1.915,0,0,1,1.469.623,2.439,2.439,0,0,1,.563,1.654v7.015h-1.116v-7.01a1.012,1.012,0,0,0-.365-.911,1.7,1.7,0,0,0-.947-.237h-.312a1.292,1.292,0,0,0-.931.307,1.052,1.052,0,0,0-.341.841v7.01h-1.113v-7.015a2.35,2.35,0,0,1,.576-1.654,1.924,1.924,0,0,1,1.466-.623Zm-9.116.021h1.247a1.208,1.208,0,0,1-.273.87l-2.807,2.81h.881a1.314,1.314,0,0,1,.673.182.938.938,0,0,1,.424.449l.038.073.02-.073a.951.951,0,0,1,.434-.455,1.3,1.3,0,0,1,.664-.176h1.008a1.793,1.793,0,0,1,.735.154,1.971,1.971,0,0,1,.62.418,1.907,1.907,0,0,1,.4.582,1.668,1.668,0,0,1,.147.7v3.742h-1.12v-3.241a1.576,1.576,0,0,0-.219-.911.925.925,0,0,0-.836-.336h-.394c-.663,0-.988.419-.988,1.247v1.446h-1.118v-1.446a1.488,1.488,0,0,0-.237-.91.976.976,0,0,0-.847-.337h-.52c-.658,0-.988.419-.988,1.247v3.241h-1.11v-3.561a2.448,2.448,0,0,1,.727-1.836l3.052-3.057a1.283,1.283,0,0,0,.286-.37A1.213,1.213,0,0,0,220.814,457.161Zm-12.5-.009a1,1,0,0,0,.693.348h.17a.548.548,0,0,0,.235-.046,1.106,1.106,0,0,0,.233-.124,2.534,2.534,0,0,1,.214-.138.718.718,0,0,1,.27-.04h.276a.853.853,0,0,1,.543.215.773.773,0,0,1,.328.42.758.758,0,0,1,.339-.477.979.979,0,0,1,.558-.158h1.072a1.17,1.17,0,0,1,.684.209,1.545,1.545,0,0,1,.466.536,1.414,1.414,0,0,1,.176.656v5.725a2.426,2.426,0,0,1-.287,1.161,2.138,2.138,0,0,1-.77.808,1.824,1.824,0,0,1-.978.3h-1.07a1.656,1.656,0,0,1-.979-.327,2.252,2.252,0,0,1-.758-.846,2.3,2.3,0,0,1-.276-1.094v-1.357h1.11v1.368a1,1,0,0,0,.406.854,1.539,1.539,0,0,0,.9.284h.309a1.428,1.428,0,0,0,.915-.291,1.083,1.083,0,0,0,.355-.847v-5.054a2.977,2.977,0,0,0-.039-.537.471.471,0,0,0-.205-.3.847.847,0,0,0-.494-.113h-.263c-.437,0-.655.312-.655.951v1.4H210.67v-1.583a.9.9,0,0,0-.158-.588.47.47,0,0,0-.359-.176h-.138a.9.9,0,0,0-.424.161.862.862,0,0,1-.4.164h-.183a.745.745,0,0,1-.352-.12,1.315,1.315,0,0,1-.341-.226ZM204.4,459.92a1.492,1.492,0,0,0,.8-.187.619.619,0,0,0,.311-.577V457.14h1.113V459.2a1.238,1.238,0,0,1-.3.795,1.342,1.342,0,0,1-.766.473,1.222,1.222,0,0,1,.558.25,1.329,1.329,0,0,1,.506,1.034v2.522a2.408,2.408,0,0,1-.574,1.593,1.832,1.832,0,0,1-1.467.674H203.46a1.867,1.867,0,0,1-1.138-.341,2.109,2.109,0,0,1-.677-.863,2.565,2.565,0,0,1-.222-1.063v-1.367h1.11v1.378c0,.762.444,1.138,1.333,1.138h.371c.849,0,1.273-.376,1.273-1.145v-2.394a.757.757,0,0,0-.311-.6,1.194,1.194,0,0,0-.8-.257Zm-6.759-2.78a1.91,1.91,0,0,1,1.461.623,2.415,2.415,0,0,1,.564,1.654v7.015h-1.112v-7.01a1.02,1.02,0,0,0-.368-.911,1.719,1.719,0,0,0-.947-.237h-.311a1.3,1.3,0,0,0-.931.307,1.053,1.053,0,0,0-.337.841v7.01h-1.12v-7.015a2.316,2.316,0,0,1,.579-1.654,1.919,1.919,0,0,1,1.46-.623Zm-6.306,2.292a1.027,1.027,0,0,0-.162-.586,1.01,1.01,0,0,0-.45-.4,1.289,1.289,0,0,0-.61-.148h-.363a1.9,1.9,0,0,0-.872.226.9.9,0,0,0-.445.881v.3h-1.111v-.422a2.052,2.052,0,0,1,.323-1.124,2.234,2.234,0,0,1,.831-.762,2.051,2.051,0,0,1,1.015-.267h.806a1.812,1.812,0,0,1,.855.209,2.491,2.491,0,0,1,.687.528,3.028,3.028,0,0,1,.461.691,1.585,1.585,0,0,1,.16.68v4.845a3.127,3.127,0,0,1-.23,1.178,2.3,2.3,0,0,1-.724.923,1.888,1.888,0,0,1-1.169.364h-.88a2.12,2.12,0,0,1-1.69-.7,2.85,2.85,0,0,1-.6-1.906v-1.032a1.9,1.9,0,0,1,.315-1.063,2.426,2.426,0,0,1,.821-.76,1.92,1.92,0,0,1,.944-.276h.675a3.052,3.052,0,0,1,.8.1,1.49,1.49,0,0,1,.606.358Zm-3.056,3.412v1.541a.9.9,0,0,0,.356.764,1.661,1.661,0,0,0,1.014.272h.414a1.465,1.465,0,0,0,.894-.285.893.893,0,0,0,.4-.751v-1.413a.957.957,0,0,0-.164-.52,1.363,1.363,0,0,0-.487-.41,1.276,1.276,0,0,0-.665-.172h-.424a1.587,1.587,0,0,0-.986.269A.838.838,0,0,0,188.28,462.844Zm-7.378-3.427a1.664,1.664,0,0,0-.179-.849.752.752,0,0,0-.7-.294h-.306a1.289,1.289,0,0,0-.936.307,1.066,1.066,0,0,0-.338.841v7.01H177.33v-7.015a2.309,2.309,0,0,1,.607-1.647,1.891,1.891,0,0,1,1.418-.63l.66.012a1.479,1.479,0,0,1,.982.3,1.676,1.676,0,0,1,.439.584,1.694,1.694,0,0,1,.469-.588,1.532,1.532,0,0,1,1.029-.3l.618-.012a1.888,1.888,0,0,1,1.489.615,2.412,2.412,0,0,1,.547,1.662v7.015h-1.106v-7.01a1.1,1.1,0,0,0-.341-.841,1.321,1.321,0,0,0-.942-.307h-.3a.76.76,0,0,0-.7.294,1.531,1.531,0,0,0-.191.849v2.849H180.9Zm-5.325-1.088a.183.183,0,0,0-.128-.045.987.987,0,0,0-.128.027,3.655,3.655,0,0,1-1.13.212,5.008,5.008,0,0,1-1.212-.158s-.074-.006-.2-.01-.272-.013-.413-.013c-.523.107-.8.563-.8,1.375v1.554a1.626,1.626,0,0,1,.621-.358,3.087,3.087,0,0,1,.8-.1h.674a1.915,1.915,0,0,1,.944.276,2.284,2.284,0,0,1,.811.76,1.8,1.8,0,0,1,.332,1.063v1.032a2.855,2.855,0,0,1-.6,1.906,2.151,2.151,0,0,1-1.7.7h-.88a1.9,1.9,0,0,1-1.165-.364,2.214,2.214,0,0,1-.718-.923,2.956,2.956,0,0,1-.24-1.178v-4.845a2.132,2.132,0,0,1,.12-.708,2.37,2.37,0,0,1,.365-.615,2.284,2.284,0,0,1,.553-.476,2.379,2.379,0,0,1,.648-.253,2.226,2.226,0,0,1,.461-.043,1.593,1.593,0,0,1,.412.043,4.558,4.558,0,0,0,1.275.221,2.124,2.124,0,0,0,.525-.056,4.958,4.958,0,0,0,.523-.165.292.292,0,0,1,.128-.031.157.157,0,0,1,.114.04Zm-.939,4.515a.827.827,0,0,0-.152-.5.929.929,0,0,0-.458-.344,1.79,1.79,0,0,0-.729-.13h-.428a1.286,1.286,0,0,0-.663.172,1.223,1.223,0,0,0-.476.41.887.887,0,0,0-.173.52v1.413a.868.868,0,0,0,.4.751,1.441,1.441,0,0,0,.885.285h.424a1.7,1.7,0,0,0,1.009-.267.9.9,0,0,0,.358-.769Zm-10.877-3.427a1.57,1.57,0,0,0-.187-.849c-.108-.2-.346-.294-.692-.294h-.309a1.317,1.317,0,0,0-.94.307,1.086,1.086,0,0,0-.343.841v7.01h-1.1v-7.015a2.3,2.3,0,0,1,.6-1.647,1.9,1.9,0,0,1,1.419-.63l.659.012a1.5,1.5,0,0,1,.985.3,1.768,1.768,0,0,1,.442.584,1.6,1.6,0,0,1,.465-.588,1.518,1.518,0,0,1,1.025-.3l.622-.012a1.891,1.891,0,0,1,1.488.615,2.418,2.418,0,0,1,.55,1.662v7.015h-1.115v-7.01a1.085,1.085,0,0,0-.335-.841,1.3,1.3,0,0,0-.936-.307h-.307a.741.741,0,0,0-.688.294,1.581,1.581,0,0,0-.2.849v2.849h-1.111Zm-7.808.5a1.47,1.47,0,0,0,.794-.187.6.6,0,0,0,.312-.577V457.14h1.112V459.2a1.277,1.277,0,0,1-.288.795,1.351,1.351,0,0,1-.767.473,1.183,1.183,0,0,1,.551.25,1.383,1.383,0,0,1,.377.466,1.43,1.43,0,0,1,.127.568v2.522a2.385,2.385,0,0,1-.571,1.593,1.828,1.828,0,0,1-1.457.674h-1.124a1.852,1.852,0,0,1-1.142-.341,2.111,2.111,0,0,1-.684-.863,2.624,2.624,0,0,1-.217-1.063v-1.367h1.11v1.378c0,.762.446,1.138,1.324,1.138h.373c.853,0,1.276-.376,1.276-1.145v-2.394a.734.734,0,0,0-.312-.6,1.177,1.177,0,0,0-.794-.257Zm-7.466,5.488h.337a1.471,1.471,0,0,0,.978-.259,1.118,1.118,0,0,0,.285-.86v-4.872a1.162,1.162,0,0,0-.325-.855,1.309,1.309,0,0,0-.992-.328h-.321a1.18,1.18,0,0,0-.96.34,1.315,1.315,0,0,0-.278.843v.931H146.1v-.931a2.525,2.525,0,0,1,.281-1.228,2.039,2.039,0,0,1,.741-.795,1.936,1.936,0,0,1,1.01-.267H149.2a1.669,1.669,0,0,1,1.079.357,2.347,2.347,0,0,1,.7.888,2.494,2.494,0,0,1,.24,1.032v4.874a2.459,2.459,0,0,1-.271,1.2,1.962,1.962,0,0,1-1.748,1.063h-1.063a1.927,1.927,0,0,1-1.019-.3,2.174,2.174,0,0,1-.747-.823,2.375,2.375,0,0,1-.266-1.146v-1.357h1.11v1.368a1.348,1.348,0,0,0,.146.684.7.7,0,0,0,.416.339A2.05,2.05,0,0,0,148.487,465.408Z"/><path class="c" d="M424.555,457.14a1.889,1.889,0,0,1,1.46.623,2.367,2.367,0,0,1,.564,1.654v7.015h-1.113v-7.01a1.03,1.03,0,0,0-.355-.911,1.784,1.784,0,0,0-.963-.237h-.3a1.33,1.33,0,0,0-.943.307,1.045,1.045,0,0,0-.334.841v7.01h-1.112v-7.015a2.342,2.342,0,0,1,.578-1.654,1.893,1.893,0,0,1,1.455-.623Zm-9.109.021h1.239a1.2,1.2,0,0,1-.276.87l-2.811,2.81h.888a1.28,1.28,0,0,1,.666.182.842.842,0,0,1,.426.449l.03.073.043-.073a.861.861,0,0,1,.422-.455,1.29,1.29,0,0,1,.658-.176h1a1.79,1.79,0,0,1,.741.154,1.827,1.827,0,0,1,.623.418,1.857,1.857,0,0,1,.408.582,1.8,1.8,0,0,1,.142.7v3.742h-1.118v-3.241a1.544,1.544,0,0,0-.224-.911.928.928,0,0,0-.838-.336h-.394c-.653,0-.984.419-.984,1.247v1.446h-1.11v-1.446a1.544,1.544,0,0,0-.242-.91.987.987,0,0,0-.854-.337h-.516c-.65,0-.988.419-.988,1.247v3.241h-1.11v-3.561a2.485,2.485,0,0,1,.725-1.836l3.061-3.057a2.141,2.141,0,0,0,.289-.37A1.425,1.425,0,0,0,415.446,457.161Zm-10.716,5.383h-1.158v-.828a1.243,1.243,0,0,1,.428-.964.762.762,0,0,1,.45-.2l-.043-.052a1.954,1.954,0,0,1-.993-.413,1.1,1.1,0,0,1-.42-.9l.007-.763a.989.989,0,0,1,.252-.572,1.744,1.744,0,0,1,.6-.5,1.523,1.523,0,0,1,.725-.2h.872a1.527,1.527,0,0,1,.8.209,1.883,1.883,0,0,1,.58.513.981.981,0,0,1,.209.542v.76a1.118,1.118,0,0,1-.176.648,1.482,1.482,0,0,1-.423.408c-.149.093-.232.14-.232.126l.073.019a3.094,3.094,0,0,1,2.492,1.588,2.764,2.764,0,0,1,.352,1.226l.007.255a3.889,3.889,0,0,1-.295,1.489,2.748,2.748,0,0,1-.944,1.159,2.579,2.579,0,0,1-1.546.451h-2.542a2.369,2.369,0,0,1-1.445-.464,3.166,3.166,0,0,1-.983-1.173,3.393,3.393,0,0,1-.351-1.462v-3.088h1.108v2.46a2.332,2.332,0,0,0,2.667,2.6h.641a5.867,5.867,0,0,0,1.485-.144,1.227,1.227,0,0,0,.8-.581A2.673,2.673,0,0,0,408,463.35V463.2a1.5,1.5,0,0,0-.184-.722,2.371,2.371,0,0,0-.527-.632,3,3,0,0,0-.818-.453,3.165,3.165,0,0,0-1.021-.161.989.989,0,0,0-.52.161.61.61,0,0,0-.2.53Zm-.614-3.349a.6.6,0,0,0,.231.515.852.852,0,0,0,.486.159h.358a.9.9,0,0,0,.541-.142.643.643,0,0,0,.2-.532v-.428a.808.808,0,0,0-.133-.493c-.08-.114-.284-.168-.6-.168h-.358a.6.6,0,0,0-.717.661Zm-4.917-.866a.172.172,0,0,0-.125-.045.675.675,0,0,0-.118.027,3.816,3.816,0,0,1-1.139.212,4.978,4.978,0,0,1-1.212-.158s-.083-.006-.208-.01a4.072,4.072,0,0,0-.407-.013c-.529.107-.791.563-.791,1.375v1.554a1.529,1.529,0,0,1,.619-.358,3.009,3.009,0,0,1,.787-.1h.686a1.888,1.888,0,0,1,.937.276,2.355,2.355,0,0,1,.818.76,1.867,1.867,0,0,1,.325,1.063v1.032a2.822,2.822,0,0,1-.605,1.906,2.088,2.088,0,0,1-1.68.7h-.88a1.91,1.91,0,0,1-1.178-.364,2.379,2.379,0,0,1-.714-.923,2.977,2.977,0,0,1-.243-1.178v-4.845a2.07,2.07,0,0,1,.128-.708,2.161,2.161,0,0,1,.363-.615,2.265,2.265,0,0,1,.557-.476,2.022,2.022,0,0,1,1.112-.3,1.464,1.464,0,0,1,.4.043,4.551,4.551,0,0,0,1.288.221,2.12,2.12,0,0,0,.52-.056,5.151,5.151,0,0,0,.52-.165.324.324,0,0,1,.135-.031.159.159,0,0,1,.108.04Zm-.937,4.515a.862.862,0,0,0-.152-.5.981.981,0,0,0-.458-.344,1.805,1.805,0,0,0-.734-.13h-.426a1.285,1.285,0,0,0-.667.172,1.308,1.308,0,0,0-.474.41.977.977,0,0,0-.171.52v1.413a.912.912,0,0,0,.4.751,1.489,1.489,0,0,0,.891.285h.415a1.717,1.717,0,0,0,1.021-.267.9.9,0,0,0,.356-.769Zm-9.007,2.564h.328a1.443,1.443,0,0,0,.976-.259,1.107,1.107,0,0,0,.286-.86v-4.872a1.169,1.169,0,0,0-.311-.855,1.343,1.343,0,0,0-1.008-.328h-.307a1.193,1.193,0,0,0-.968.34,1.324,1.324,0,0,0-.274.843v.931h-1.112v-.931a2.535,2.535,0,0,1,.279-1.228,2.031,2.031,0,0,1,.744-.795,1.934,1.934,0,0,1,1.006-.267h1.067a1.653,1.653,0,0,1,1.078.357,2.44,2.44,0,0,1,.709.888,2.742,2.742,0,0,1,.234,1.032v4.874a2.4,2.4,0,0,1-.284,1.2,1.864,1.864,0,0,1-.726.785,1.971,1.971,0,0,1-1.011.278h-1.067a1.9,1.9,0,0,1-1.014-.3,2.092,2.092,0,0,1-.745-.823,2.448,2.448,0,0,1-.27-1.146v-1.357h1.112v1.368a1.3,1.3,0,0,0,.148.684.661.661,0,0,0,.416.339A2.021,2.021,0,0,0,389.255,465.408Zm-4.906-6.509a.415.415,0,0,0-.092-.273c-.06-.082-.159-.181-.28-.312a1.527,1.527,0,0,1-.28-.321.507.507,0,0,1-.093-.31v-.556h1.119v.576a.589.589,0,0,0,.08.3,2.237,2.237,0,0,0,.275.289,1.851,1.851,0,0,1,.295.3.445.445,0,0,1,.1.3v1.134a.859.859,0,0,1-.261.628,1.612,1.612,0,0,1-.691.374,1.062,1.062,0,0,1,.721.4,1.386,1.386,0,0,1,.3.9v1.945a2.282,2.282,0,0,1-.3,1.13,2.344,2.344,0,0,1-.767.824,1.7,1.7,0,0,1-.958.313h-1.378a1.9,1.9,0,0,1-1.023-.3,2.078,2.078,0,0,1-.736-.823,2.429,2.429,0,0,1-.27-1.146v-7.151h1.107v7.162a.9.9,0,0,0,.441.911,2.461,2.461,0,0,0,1.023.208h.389a1.536,1.536,0,0,0,1.018-.281,1.054,1.054,0,0,0,.318-.838v-1.774a.771.771,0,0,0-.3-.667,1.215,1.215,0,0,0-.775-.233v-1.109a1.221,1.221,0,0,0,.692-.2.58.58,0,0,0,.334-.514Zm-11.74,4.361a2.38,2.38,0,0,1,.291.5,1.549,1.549,0,0,1,.111.515,2.742,2.742,0,0,1-.238,1.17,1.867,1.867,0,0,1-.7.8,2,2,0,0,1-1.085.294h-1.066a2.177,2.177,0,0,1-1.06-.243,1.674,1.674,0,0,1-.717-.753,2.885,2.885,0,0,1-.245-1.271v-7.126h1.1v7.137a1.143,1.143,0,0,0,.3.824.938.938,0,0,0,.721.308h.87a.927.927,0,0,0,.751-.308,1.234,1.234,0,0,0,.258-.824.67.67,0,0,0-.087-.346c-.062-.1-.157-.237-.283-.4a2.166,2.166,0,0,1-.391-.724,2.1,2.1,0,0,1-.143-.7v-1.178h1.107v.86a2.159,2.159,0,0,0,.131.788A3.372,3.372,0,0,0,372.609,463.26Zm-8.866-6.12a1.87,1.87,0,0,1,1.453.623,2.354,2.354,0,0,1,.564,1.654v7.015h-1.107v-7.01a1.026,1.026,0,0,0-.357-.911,1.775,1.775,0,0,0-.96-.237h-.3a1.33,1.33,0,0,0-.945.307,1.087,1.087,0,0,0-.339.841v7.01h-1.1v-7.015a2.357,2.357,0,0,1,.571-1.654,1.9,1.9,0,0,1,1.457-.623Zm-6.376,2.219a1.065,1.065,0,0,0-.306-.791,1.348,1.348,0,0,0-.959-.294h-.322a1.6,1.6,0,0,0-.891.246,1.031,1.031,0,0,0-.38.925v.808H353.4v-.87a2.353,2.353,0,0,1,.178-.967,2,2,0,0,1,.461-.7,2.285,2.285,0,0,1,.66-.418,2.034,2.034,0,0,1,.74-.138h1.052a1.866,1.866,0,0,1,.852.2,1.932,1.932,0,0,1,.637.522,2.625,2.625,0,0,1,.4.743,2.567,2.567,0,0,1,.136.819v.756a1,1,0,0,1-.278.689,3.44,3.44,0,0,1-.81.622,1.235,1.235,0,0,1,.774.4,1.17,1.17,0,0,1,.314.818v1.542a2.473,2.473,0,0,1-.278,1.212,1.85,1.85,0,0,1-.731.785,1.953,1.953,0,0,1-1.02.278h-1.052a1.917,1.917,0,0,1-1.02-.3,2.115,2.115,0,0,1-.745-.823,2.46,2.46,0,0,1-.274-1.154v-1.352h1.112v1.364a1.385,1.385,0,0,0,.142.691.757.757,0,0,0,.423.339,2.014,2.014,0,0,0,.714.1h.328a1.452,1.452,0,0,0,.979-.259,1.114,1.114,0,0,0,.284-.867v-1.364a.716.716,0,0,0-.276-.617,1.278,1.278,0,0,0-.8-.212v-1.11a1.147,1.147,0,0,0,.522-.116.842.842,0,0,0,.395-.31.68.68,0,0,0,.143-.442Zm-8.342,6.049h.334a1.457,1.457,0,0,0,.978-.259,1.125,1.125,0,0,0,.279-.86v-4.872a1.193,1.193,0,0,0-.308-.855,1.349,1.349,0,0,0-1.006-.328h-.319a1.2,1.2,0,0,0-.962.34,1.307,1.307,0,0,0-.274.843v.931h-1.108v-.931a2.492,2.492,0,0,1,.281-1.228,2,2,0,0,1,.753-.795,1.864,1.864,0,0,1,1-.267h1.051a1.675,1.675,0,0,1,1.09.357,2.332,2.332,0,0,1,.7.888,2.588,2.588,0,0,1,.238,1.032v4.874a2.448,2.448,0,0,1-.271,1.2,1.974,1.974,0,0,1-1.755,1.063h-1.051a1.9,1.9,0,0,1-1.02-.3,2.06,2.06,0,0,1-.744-.823,2.368,2.368,0,0,1-.272-1.146v-1.357h1.108v1.368a1.4,1.4,0,0,0,.142.684.728.728,0,0,0,.418.339A2.081,2.081,0,0,0,349.025,465.408Z"/></g></svg>